<svg width="86" height="86" xmlns="http://www.w3.org/2000/svg" xmlns:xlink="http://www.w3.org/1999/xlink" xml:space="preserve" overflow="hidden"><defs><clipPath id="clip0"><rect x="412" y="98" width="86" height="86"/></clipPath><clipPath id="clip1"><path d="M412.813 131.338 463.254 98.1148 497.596 150.255 447.155 183.478Z" fill-rule="evenodd" clip-rule="evenodd"/></clipPath><clipPath id="clip2"><path d="M412.813 131.338 463.254 98.1148 497.596 150.255 447.155 183.478Z" fill-rule="evenodd" clip-rule="evenodd"/></clipPath><clipPath id="clip3"><path d="M412.813 131.338 463.254 98.1148 497.596 150.255 447.155 183.478Z" fill-rule="evenodd" clip-rule="evenodd"/></clipPath></defs><g clip-path="url(#clip0)" transform="translate(-412 -98)"><g clip-path="url(#clip1)"><g clip-path="url(#clip2)"><g clip-path="url(#clip3)"><path d="M6.20227 30.196C6.20227 43.7475 17.188 54.7332 30.7396 54.7332 44.2911 54.7332 55.2768 43.7475 55.2768 30.196 55.2768 16.6444 44.2911 5.65868 30.7396 5.65868 17.188 5.65868 6.20227 16.6444 6.20227 30.196Z" fill="#AEECFF" transform="matrix(0.83513 -0.550052 0.568576 0.863254 412.813 131.338)"/><path d="M43.2573 12.095 40.6262 9.48649 6.60242 25.632C6.60242 25.632 5.3378 30.3621 6.76474 36.0962 16.6136 29.7279 36.4662 16.591 43.2573 12.095ZM38.55 18.1916 22.0194 32.8724 27.5271 36.2586 41.2113 20.1319ZM43.1705 20.7548 36.3076 37.4401 42.442 37.4401 45.7451 21.7023ZM48.2894 19.5317 48.2894 38.6934 54.2274 37.3004 50.6299 19.5053Z" fill="#E3FAFF" transform="matrix(0.83513 -0.550052 0.568576 0.863254 412.813 131.338)"/><path d="M37.1004 14.2279C37.1004 18.9584 40.9352 22.7933 45.6658 22.7933 50.3963 22.7933 54.2312 18.9584 54.2312 14.2279 54.2312 9.49729 50.3963 5.66245 45.6658 5.66245 40.9352 5.66245 37.1004 9.49729 37.1004 14.2279Z" fill="#FFFF5F" transform="matrix(0.83513 -0.550052 0.568576 0.863254 412.813 131.338)"/><path d="M30.7358 54.737C37.1155 54.737 42.91 52.2833 47.2701 48.2894 46.9727 47.2315 46.4116 46.2665 45.6394 45.4846L26.4134 26.2549C23.8249 23.6813 19.6439 23.6813 17.0553 26.2549L6.99879 36.3076C9.72054 46.9002 19.3014 54.737 30.7358 54.737Z" fill="#66BF47" transform="matrix(0.83513 -0.550052 0.568576 0.863254 412.813 131.338)"/><path d="M18.6823 51.5547C22.3567 53.6418 26.5101 54.7383 30.7358 54.737 41.7318 54.7326 51.3809 47.4102 54.3444 36.821L48.3498 30.8302C45.7612 28.2565 41.5802 28.2565 38.9916 30.8302L19.7657 50.0598C19.3165 50.5091 18.973 51.0225 18.6823 51.5547Z" fill="#3FB018" transform="matrix(0.83513 -0.550052 0.568576 0.863254 412.813 131.338)"/><path d="M30.7358 54.737C34.5561 54.7352 38.3226 53.8366 41.7323 52.1134L28.6822 39.0671C25.7296 36.1302 20.9591 36.1302 18.0066 39.0671L11.574 45.4997C16.2188 51.3393 23.2742 54.7405 30.7358 54.737Z" fill="#5AA93E" transform="matrix(0.83513 -0.550052 0.568576 0.863254 412.813 131.338)"/></g></g></g></g></svg>